PathFileType  4	(X/Y/Z) C:\Users\antoi\Documents\MyRepositories\mobilecap\ResultsAnalysis
DataRate	CameraRate	NumFrames	NumMarkers	Units	OrigDataRate	OrigDataStartFrame	OrigNumFrames
100.0	100.0	4	51	mm	100.0	95	253
Frame#	Time	r_knee			r_shank_antsup			r_ankle			r_calc			r_5meta			r_toe			L_knee			L_shank_antsup			L_ankle			L_calc			L_5meta			L_toe			r_sh2			r_sh3			r_sh4			L_sh2			L_sh3			r_thigh1			r_thigh2			r_thigh3			r_thigh4			r_thigh5			L_thigh1			L_thigh2			L_thigh3			L_thigh4			r.ASIS			r.PSIS			L.ASIS			L.PSIS			C7			R_Shoulder			L_Shoulder			R_Sternum			L_Sternum			R_humerus			R_elbow_med			R_elbow_lat			R_forearm			R_wrist_radius			R_wrist_ulna			L_humerus			L_elbow_med			L_elbow_lat			L_forearm			L_wrist_radius			L_wrist_ulna			R_HJC			L_HJC			R_HJC_reg			L_HJC_reg			
		X1	Y1	Z1	X2	Y2	Z2	X3	Y3	Z3	X4	Y4	Z4	X5	Y5	Z5	X6	Y6	Z6	X7	Y7	Z7	X8	Y8	Z8	X9	Y9	Z9	X10	Y10	Z10	X11	Y11	Z11	X12	Y12	Z12	X13	Y13	Z13	X14	Y14	Z14	X15	Y15	Z15	X16	Y16	Z16	X17	Y17	Z17	X18	Y18	Z18	X19	Y19	Z19	X20	Y20	Z20	X21	Y21	Z21	X22	Y22	Z22	X23	Y23	Z23	X24	Y24	Z24	X25	Y25	Z25	X26	Y26	Z26	X27	Y27	Z27	X28	Y28	Z28	X29	Y29	Z29	X30	Y30	Z30	X31	Y31	Z31	X32	Y32	Z32	X33	Y33	Z33	X34	Y34	Z34	X35	Y35	Z35	X36	Y36	Z36	X37	Y37	Z37	X38	Y38	Z38	X39	Y39	Z39	X40	Y40	Z40	X41	Y41	Z41	X42	Y42	Z42	X43	Y43	Z43	X44	Y44	Z44	X45	Y45	Z45	X46	Y46	Z46	X47	Y47	Z47	X48	Y48	Z48	X49	Y49	Z49	X50	Y50	Z50	X51	Y51	Z51	

95	0.94000000	-813.32424	739.93790	-446.54277	-846.29029	677.22868	-421.09140	-1069.92185	469.94364	-462.42252	-1142.11535	493.61820	-501.82410	-1033.27653	362.14608	-435.63101	-988.63107	344.99534	-491.01748	-823.46413	748.00451	-762.90112	-837.42554	677.77407	-767.55411	-1063.89754	468.03885	-720.19095	-1132.99522	496.86440	-666.98682	-1043.05519	365.29470	-745.40240	-986.82617	345.06900	-696.50579	-924.89229	594.80045	-420.15214	-899.05081	727.54523	-438.75123	-984.69256	648.99275	-440.90993	-900.21256	741.19022	-776.55989	-977.81614	647.25854	-770.24675	-752.77155	1049.31774	-459.28210	-738.98935	938.00529	-447.87198	-784.62475	913.20766	-404.59872	-847.65854	1044.64513	-396.03604	-840.02699	927.44370	-402.22932	-777.78321	1035.59104	-768.25296	-762.66347	897.58238	-775.64234	-894.32267	1025.32909	-776.70069	-871.42956	885.45174	-778.87410	-762.03341	1194.01447	-468.20407	-940.98998	1236.90311	-530.50647	-773.95761	1194.38822	-723.17650	-950.06514	1232.82885	-638.66793	-816.91231	1685.57374	-596.65344	-765.17435	1648.58681	-464.95244	-760.26434	1653.90831	-740.56428	-700.92109	1589.19671	-579.31626	-702.03867	1587.84862	-625.40741	-717.27525	1514.95885	-278.08422	-697.06642	1389.10260	-256.33997	-709.71499	1457.63511	-212.41041	-627.58097	1515.01304	-273.27053	-548.17999	1555.39649	-344.10803	-518.59622	1539.92449	-315.54493	-688.05459	1599.75736	-822.45093	-619.56990	1409.16202	-933.07820	-616.95095	1467.65020	-974.15482	-532.42792	1512.58571	-905.91003	-443.79772	1526.48472	-821.76518	-419.07135	1516.01577	-847.92414	-836.73686	1128.17316	-491.31084	-843.76213	1130.43752	-691.46749	-834.12525	1126.83005	-495.68548	-848.20086	1120.51117	-663.44281	
96	0.95000000	-799.54382	747.60787	-445.20638	-832.96670	685.81025	-419.54968	-1052.59667	473.92594	-461.47158	-1120.11308	504.73169	-503.00214	-1027.24405	362.05362	-435.69899	-984.16928	340.42801	-490.00631	-811.55957	754.82127	-763.63557	-825.16527	685.10838	-767.81909	-1051.27005	472.31915	-723.40121	-1116.47494	501.47368	-667.13864	-1035.02092	365.24241	-747.59089	-976.93994	344.41919	-701.47346	-910.50942	602.34129	-418.58545	-886.38223	735.27677	-437.92036	-970.64574	655.38732	-440.51641	-888.51899	747.78200	-776.53803	-965.07808	652.84908	-770.89808	-741.25213	1057.18750	-457.68126	-726.61099	946.13022	-445.53653	-772.85631	920.67523	-403.73079	-836.90664	1051.89235	-396.08005	-828.35909	934.79675	-401.78247	-765.81813	1042.10305	-768.68259	-751.04562	904.09865	-776.46757	-882.54774	1031.87407	-776.75692	-859.86762	891.90857	-778.90883	-750.33176	1202.16946	-468.88963	-929.14663	1243.51791	-530.89265	-762.15916	1202.30213	-723.48463	-938.14476	1239.11156	-639.07339	-807.18889	1692.94588	-596.97552	-756.19545	1656.12671	-466.32994	-752.31668	1662.03448	-739.69978	-691.77407	1597.15898	-579.39215	-692.88821	1595.14776	-626.16027	-710.79286	1527.58388	-276.10053	-690.63159	1401.46698	-251.74362	-704.82663	1471.15679	-208.92400	-623.87942	1528.55986	-271.10114	-545.31635	1568.13023	-343.04741	-515.67302	1554.64504	-313.58984	-680.06105	1611.18679	-823.04105	-610.86473	1422.99838	-938.59867	-609.04030	1482.25114	-978.61376	-526.73474	1528.23170	-908.72215	-439.88354	1542.35646	-822.80415	-414.72181	1533.35029	-848.80352	-824.17430	1135.65605	-491.70062	-831.26187	1137.71996	-691.85706	-821.79885	1134.70449	-496.18603	-835.73081	1127.88278	-663.68288	
97	0.96000000	-785.89311	754.69790	-443.72125	-819.21538	693.62906	-418.47563	-1034.80893	476.98467	-460.34680	-1097.26559	513.03180	-504.71022	-1021.32075	361.24862	-435.64166	-978.13748	336.54071	-487.66373	-800.17607	760.54634	-763.76548	-813.03336	690.97959	-768.22187	-1038.07308	476.60341	-727.33076	-1101.84346	501.87526	-667.59676	-1021.15281	367.04509	-751.13826	-961.23426	347.41722	-707.21225	-895.43436	609.04968	-417.19959	-873.43695	741.94814	-437.68180	-956.11799	660.55704	-440.42806	-877.01730	753.06144	-776.87728	-952.66228	657.18158	-771.75425	-730.02522	1064.40871	-455.74675	-714.31181	953.61716	-443.26598	-761.10955	927.51065	-402.87416	-826.58909	1058.20512	-396.32046	-816.76550	941.25980	-401.59024	-754.23228	1047.64636	-769.04508	-739.74271	909.79381	-776.96521	-870.93730	1037.63835	-776.83717	-848.43566	897.56663	-778.47674	-739.07909	1209.64589	-469.33849	-917.65728	1249.76205	-531.45663	-750.58163	1208.91031	-723.66870	-926.54369	1245.13267	-639.66243	-796.88082	1699.44887	-597.54147	-746.79576	1662.74467	-467.87699	-743.59131	1669.13430	-738.85925	-682.05373	1604.07444	-579.82873	-683.25857	1601.54884	-627.02224	-704.63609	1538.94479	-274.54069	-684.89729	1412.69715	-247.77510	-700.21370	1483.44165	-206.05380	-620.03292	1540.24462	-269.58168	-541.64599	1578.57605	-342.34074	-512.20571	1566.86800	-311.90035	-671.79211	1621.04704	-823.55715	-602.75055	1435.24543	-944.02943	-601.36440	1495.39598	-982.91859	-520.90782	1541.69914	-911.60545	-435.78471	1555.48373	-824.06737	-410.29034	1547.78651	-850.06432	-812.36809	1142.63535	-491.87672	-819.27238	1144.08057	-692.04443	-809.98237	1141.58319	-496.55051	-823.72314	1134.42471	-663.86545	
98	0.97000000	-772.29942	760.65149	-442.43126	-805.13088	700.05936	-417.55191	-1018.42505	480.35948	-459.80631	-1077.24082	517.94267	-506.66185	-1011.90494	362.17549	-434.79607	-966.67775	336.47177	-484.31724	-789.14979	765.26012	-763.62095	-801.16650	695.52067	-768.81391	-1023.01642	478.85957	-729.75880	-1088.12500	499.90937	-669.46006	-1001.28316	370.74143	-755.50841	-941.01180	352.56118	-711.86753	-880.00943	614.34887	-415.85857	-859.97854	747.29203	-437.63073	-941.35636	664.54562	-440.37251	-866.02127	757.02405	-777.45087	-940.39439	660.08663	-772.75344	-718.86167	1070.77928	-454.12697	-702.11271	960.13675	-441.32989	-749.37770	933.81590	-401.49549	-816.56806	1063.63710	-396.75440	-805.30209	946.80791	-401.42707	-743.08255	1052.35090	-769.34439	-728.61257	914.55229	-777.01636	-859.66461	1042.40395	-776.64745	-837.21487	902.35797	-777.89692	-728.37231	1216.15941	-469.85189	-906.53328	1255.58476	-532.17538	-739.37741	1214.22480	-723.71202	-915.33535	1250.82938	-640.18703	-786.21314	1704.86813	-598.35179	-737.22213	1668.33291	-469.50341	-734.10004	1675.16199	-738.32641	-671.85338	1609.80272	-580.55112	-673.20069	1606.93071	-628.01983	-698.70745	1548.90712	-273.58666	-679.94680	1422.56431	-244.12616	-695.64907	1494.28953	-203.90739	-615.66256	1549.88368	-268.54542	-537.04793	1586.71535	-341.92754	-507.94249	1576.39358	-310.54552	-663.40416	1629.20902	-823.83137	-595.30156	1445.53601	-949.12924	-594.18340	1506.87995	-986.65044	-514.69337	1552.76243	-914.50548	-431.20441	1565.72818	-825.39250	-405.45185	1559.04366	-851.72657	-801.37358	1148.89522	-491.94800	-808.00707	1149.51584	-692.12954	-798.80672	1147.53518	-496.96709	-812.41566	1140.18289	-663.96222	
